Coordinates
version=1
nRows=8
nColumns=63
inDegrees=yes

Units are S.I. units (second, meters, Newtons, ...)
If the header above contains a line with 'inDegrees', this indicates whether rotational values are in degrees (yes) or radians (no).

endheader
time	pelvis_tilt	pelvis_list	pelvis_rotation	pelvis_tx	pelvis_ty	pelvis_tz	hip_flexion_r	hip_adduction_r	hip_rotation_r	knee_angle_r	knee_angle_r_beta	ankle_angle_r	subtalar_angle_r	mtp_angle_r	hip_flexion_l	hip_adduction_l	hip_rotation_l	knee_angle_l	knee_angle_l_beta	ankle_angle_l	subtalar_angle_l	mtp_angle_l	L5_S1_Flex_Ext	L5_S1_Lat_Bending	L5_S1_axial_rotation	L4_L5_Flex_Ext	L4_L5_Lat_Bending	L4_L5_axial_rotation	L3_L4_Flex_Ext	L3_L4_Lat_Bending	L3_L4_axial_rotation	L2_L3_Flex_Ext	L2_L3_Lat_Bending	L2_L3_axial_rotation	L1_L2_Flex_Ext	L1_L2_Lat_Bending	L1_L2_axial_rotation	L1_T12_Flex_Ext	L1_T12_Lat_Bending	L1_T12_axial_rotation	Abs_r3	Abs_r2	Abs_r1	Abs_t1	Abs_t2	neck_flexion	neck_bending	neck_rotation	arm_flex_r	arm_add_r	arm_rot_r	elbow_flex_r	pro_sup_r	wrist_flex_r	wrist_dev_r	arm_flex_l	arm_add_l	arm_rot_l	elbow_flex_l	pro_sup_l	wrist_flex_l	wrist_dev_l
      0.00000000	     -3.58385464	     -3.84597363	     97.83426967	      0.29201152	      0.79424372	      0.75976714	     -7.31134348	      3.07461362	      1.36799665	      0.17395824	      0.00303614	     18.50186720	    -14.10742193	      0.00000000	     -5.57300619	     -3.40577796	      4.40189830	      0.22527935	      0.00393187	     33.68049868	     11.73227894	      0.00000000	      0.16735221	      0.35609190	     -1.23372537	      0.31078979	      0.47360222	     -1.31083320	      0.27494294	      0.86580184	     -1.31083320	      0.19126684	      0.86580184	     -1.07950970	      0.15540326	      0.72614260	     -1.00240186	      0.09562505	      0.55158635	     -0.92529402	      1.19538009	      4.02818276	     -6.86161037	      0.00000000	      0.00000000	     16.73395771	      1.12949389	      3.13540443	     21.22068915	    -14.85712859	     89.54631132	     53.14949998	      2.67368318	     -2.77782249	     27.65858108	      8.29345406	    -10.05460388	     55.85706123	     47.12976433	     66.70791765	     11.40617371	     -1.08103011
      0.02439024	     -3.88687314	     -3.63679557	     98.80492953	      0.29052499	      0.79430356	      0.75841281	     -7.96674045	      2.98349370	     -0.87903512	      0.18144053	      0.00316673	     16.80277102	    -13.67207525	      0.00000000	     -5.84616912	     -3.20625897	      5.36724066	      0.23582651	      0.00411595	     33.01529230	     11.38133531	      0.00000000	      0.16384284	      0.31029276	     -1.40974412	      0.30427253	      0.41268937	     -1.49785313	      0.26917740	      0.75444582	     -1.49785313	      0.18725598	      0.75444582	     -1.23352610	      0.15214446	      0.63274900	     -1.14541710	      0.09361980	      0.48064349	     -1.05730809	      1.17031300	      3.51009376	     -7.84057387	      0.00000000	      0.00000000	     15.81501121	      1.02906369	      3.00049869	     21.32406484	    -14.66490492	     89.33512606	     53.45588610	      3.64339388	     -1.92634230	     25.90905194	      8.04997558	    -10.53805420	     55.51723116	     47.00603667	     64.93183110	     13.15622851	      1.89225334
      0.04878049	     -4.05162140	     -3.45156790	     99.45958765	      0.28931768	      0.79450952	      0.75742367	     -8.41258258	      2.95439077	     -3.76077381	      0.18879028	      0.00329501	     16.15320795	    -11.24357829	      0.00000000	     -6.08643186	     -3.09169231	      7.30450815	      0.23488057	      0.00409944	     32.40157885	      9.28641476	      0.00000000	      0.15239429	      0.28806226	     -1.54032602	      0.28301143	      0.38312280	     -1.63659639	      0.25036858	      0.70039457	     -1.63659639	      0.17417143	      0.70039457	     -1.34778527	      0.14151334	      0.58741656	     -1.25151489	      0.08707810	      0.44620844	     -1.15524451	      1.08853717	      3.25861787	     -8.56683122	      0.00000000	      0.00000000	     15.07025098	      0.85438345	      2.94260226	     21.51691591	    -14.45169502	     89.42334973	     53.31802721	      4.71177783	     -0.89939088	     24.94672280	      7.93332726	    -10.75786484	     55.42432137	     46.97056841	     62.25136317	     13.42612083	      4.12962880
      0.07317073	     -4.13963967	     -3.37085693	     99.66915128	      0.28851844	      0.79459297	      0.75671701	     -8.61214601	      2.88473767	     -4.21558786	      0.18590114	      0.00324459	     15.25953894	    -11.23963837	      0.00000000	     -6.21619229	     -2.98317284	      7.27089471	      0.24083564	      0.00420337	     32.29676969	      9.24137546	      0.00000000	      0.14415429	      0.28083203	     -1.57664257	      0.26770893	      0.37350660	     -1.67518273	      0.23683108	      0.68281499	     -1.67518273	      0.16475394	      0.68281499	     -1.37956225	      0.13386167	      0.57267267	     -1.28102209	      0.08236976	      0.43500881	     -1.18248193	      1.02967967	      3.17682806	     -8.76881300	      0.00000000	      0.00000000	     14.69311837	      0.69688763	      2.90079011	     21.56327326	    -14.43449353	     89.24486027	     53.31496931	      4.78598206	     -0.89772553	     24.84846682	      7.94644433	    -10.71675304	     55.28574019	     46.78276179	     62.10849077	     13.43440679	      4.34795455
      0.09756098	     -4.10610702	     -3.29600972	    100.53113781	      0.28698761	      0.79479850	      0.75648615	     -8.72417325	      3.06142665	     -5.57409461	      0.18345355	      0.00320187	     14.96691310	    -11.07551611	      0.00000000	     -6.18536850	     -3.09343779	      8.05690331	      0.24094084	      0.00420521	     32.29241275	      9.30919146	      0.00000000	      0.13783995	      0.28140219	     -1.72395406	      0.25598257	      0.37426492	     -1.83170119	      0.22645725	      0.68420129	     -1.83170119	      0.15753728	      0.68420129	     -1.50845980	      0.12799818	      0.57383535	     -1.40071267	      0.07876175	      0.43589200	     -1.29296555	      0.98457698	      3.18327788	     -9.58811530	      0.00000000	      0.00000000	     14.30892234	      0.45489006	      2.57725596	     21.39945925	    -14.30937560	     88.72552420	     52.95029272	      5.42439395	     -0.88381918	     25.07667843	      7.83755600	    -10.50004761	     54.46075306	     46.77633900	     60.54583450	     13.68971001	      6.09531545
      0.12195122	     -4.03827543	     -3.27897395	    101.15460541	      0.28565074	      0.79495925	      0.75648679	     -8.70429804	      3.18884121	     -7.45631033	      0.18148663	      0.00316754	     15.26876414	     -9.34423977	      0.00000000	     -6.09547348	     -3.18655691	      8.34782132	      0.24379830	      0.00425508	     32.45410816	      9.66228071	      0.00000000	      0.13664316	      0.29178182	     -1.83360214	      0.25376000	      0.38806982	     -1.94820228	      0.22449104	      0.70943832	     -1.94820228	      0.15616946	      0.70943832	     -1.60440187	      0.12688683	      0.59500149	     -1.48980174	      0.07807790	      0.45197004	     -1.37520161	      0.97602839	      3.30069433	    -10.19794503	      0.00000000	      0.00000000	     14.09433665	      0.23348525	      2.50246420	     21.30027808	    -14.20600085	     88.39140333	     52.34623854	      5.90627562	     -0.09746586	     25.94587836	      7.97007653	    -10.28401970	     54.44765525	     46.67193093	     59.92325053	     13.30612594	      5.92941007
      0.14634146	     -3.99938778	     -3.29074647	    101.25393626	      0.28514226	      0.79497660	      0.75660041	     -8.63877923	      3.22558275	     -6.63851729	      0.17494554	      0.00305338	     14.75923594	    -10.96625020	      0.00000000	     -6.04777514	     -3.19094339	      8.53684017	      0.24218202	      0.00422687	     32.54370379	      9.44308740	      0.00000000	      0.13830920	      0.30131331	     -1.83550620	      0.25685401	      0.40074670	     -1.95022534	      0.22722818	      0.73261318	     -1.95022534	      0.15807358	      0.73261318	     -1.60606793	      0.12843392	      0.61443810	     -1.49134879	      0.07902987	      0.46673432	     -1.37662965	      0.98792875	      3.40851644	    -10.20853485	      0.00000000	      0.00000000	     13.94910492	      0.14131863	      2.68849831	     21.27741331	    -14.29480924	     88.27683303	     52.42823218	      4.79791547	     -1.48270879	     26.46947419	      8.03615543	     -9.99851331	     54.15453500	     46.62848285	     59.90745815	     12.88749258	      5.88012390
      0.17073171	     -3.93246149	     -3.32793684	    101.52993532	      0.28436864	      0.79495690	      0.75688118	     -8.55323273	      3.31300389	     -7.31344343	      0.17337759	      0.00302601	     14.56138231	    -10.69386652	      0.00000000	     -5.94005471	     -3.24662034	      8.59704208	      0.24436509	      0.00426498	     32.62704098	      9.67954403	      0.00000000	      0.15083081	      0.31580078	     -1.88044491	      0.28010789	      0.42001503	     -1.99797271	      0.24779993	      0.76783801	     -1.99797271	      0.17238453	      0.76783801	     -1.64538929	      0.14006149	      0.64398095	     -1.52786149	      0.08618472	      0.48917541	     -1.41033368	      1.07736937	      3.57240156	    -10.45847045	      0.00000000	      0.00000000	     13.86238593	      0.17221453	      3.18466609	     21.25719620	    -14.31229621	     88.31116012	     52.21269136	      4.25338980	     -1.60490063	     27.01868964	      8.14246755	     -9.79418836	     54.26240307	     46.53133930	     59.75237729	     12.73968903	      5.75770463
